<?xml version="1.0" encoding="utf-8"?>
<!-- Generator: Adobe Illustrator 21.0.2, SVG Export Plug-In . SVG Version: 6.00 Build 0)  -->
<svg version="1.1" id="Layer_1" xmlns="http://www.w3.org/2000/svg" xmlns:xlink="http://www.w3.org/1999/xlink" x="0px" y="0px"
	 width="202.5px" height="168.5px" viewBox="0 0 202.5 168.5" style="enable-background:new 0 0 202.5 168.5;" xml:space="preserve"
	>
<style type="text/css">
	.st0{opacity:0.3;fill-opacity:0.4;enable-background:new    ;}
	.st1{opacity:0.3;fill:#333333;enable-background:new    ;}
	.st2{fill:#333333;}
	.st3{fill:#FFFFFF;}
	.st4{fill:#E2E2E2;}
	.st5{fill:#E21B3C;}
	.st6{fill:#FFA602;}
	.st7{fill:#26890C;}
	.st8{fill:#1368CE;}
	.st9{fill:#737373;}
</style>
<title>Illustration</title>
<desc>Created with Sketch.</desc>
<g id="Symbols">
	<g id="Homepage-hero---purple" transform="translate(-80.000000, -48.000000)">
		<g id="Content" transform="translate(80.000000, 48.000000)">
			<g id="Illustration">
				<ellipse id="Circle" class="st0" cx="101.2" cy="86.5" rx="60.5" ry="60.2"/>
			</g>
		</g>
	</g>
</g>
<g>
	<path class="st1" d="M146.5,109.8h-92c-1.2,0-2.1-0.9-2.1-2.1V55.5c0-1.2,0.9-2.1,2.1-2.1h92c1.2,0,2.1,0.9,2.1,2.1v52.2
		C148.6,108.9,147.6,109.8,146.5,109.8z"/>
	<g>
		<g>
			<g>
				<path class="st2" d="M147.8,108.5h-92c-1.2,0-2.1-0.9-2.1-2.1V54.2c0-1.2,0.9-2.1,2.1-2.1h92c1.2,0,2.1,0.9,2.1,2.1v52.2
					C149.9,107.5,149,108.5,147.8,108.5z"/>
				<rect x="56.4" y="54.7" class="st3" width="90.8" height="50"/>
			</g>
			<rect x="63.8" y="56.9" class="st4" width="76.2" height="2.6"/>
			<rect x="84.3" y="62.1" class="st4" width="35.1" height="20.2"/>
			<g>
				<ellipse class="st4" cx="66.6" cy="72.2" rx="4.3" ry="4.3"/>
				<ellipse class="st4" cx="137.1" cy="72.2" rx="4.3" ry="4.3"/>
			</g>
		</g>
		<g>
			<g>
				<g>
					<g>
						<path class="st5" d="M101.1,93v-6.6c0-0.5-0.4-0.9-0.9-0.9H58.5c-0.5,0-0.9,0.4-0.9,0.9V93c0,0.5,0.4,0.9,0.9,0.9h41.7
							C100.7,93.9,101.1,93.5,101.1,93z"/>
					</g>
				</g>
				<polygon class="st3" points="60.2,91 61.6,88.4 63.1,91 				"/>
			</g>
			<rect x="65.5" y="89.1" class="st3" width="30.8" height="1.4"/>
		</g>
		<g>
			<g>
				<g>
					<g>
						<path class="st6" d="M101.1,102.7v-6.6c0-0.5-0.4-0.9-0.9-0.9H58.5c-0.5,0-0.9,0.4-0.9,0.9v6.6c0,0.5,0.4,0.9,0.9,0.9h41.7
							C100.7,103.5,101.1,103.1,101.1,102.7z"/>
					</g>
				</g>
				<ellipse class="st3" cx="61.6" cy="99.3" rx="1.5" ry="1.5"/>
			</g>
			<rect x="65.5" y="98.7" class="st3" width="27.2" height="1.4"/>
		</g>
		<g>
			<g>
				<g>
					<g>
						<path class="st7" d="M146.1,102.7v-6.6c0-0.5-0.4-0.9-0.9-0.9h-41.7c-0.5,0-0.9,0.4-0.9,0.9v6.6c0,0.5,0.4,0.9,0.9,0.9h41.7
							C145.6,103.5,146.1,103.1,146.1,102.7z"/>
					</g>
				</g>
				<rect x="105.1" y="97.9" class="st3" width="2.8" height="2.8"/>
			</g>
			<rect x="110.5" y="98.7" class="st3" width="30.7" height="1.4"/>
		</g>
		<g>
			<g>
				<g>
					<g>
						<path class="st8" d="M146.1,93v-6.6c0-0.5-0.4-0.9-0.9-0.9h-41.7c-0.5,0-0.9,0.4-0.9,0.9V93c0,0.5,0.4,0.9,0.9,0.9h41.7
							C145.6,93.9,146.1,93.5,146.1,93z"/>
					</g>
				</g>
				<polygon class="st3" points="106.6,88 108.3,89.7 106.6,91.4 104.9,89.7 				"/>
			</g>
			<rect x="110.5" y="89.1" class="st3" width="22" height="1.4"/>
		</g>
	</g>
</g>
<g>
	<path class="st1" d="M124.8,86.1l-6.5,31.1c-0.2,0.9,0.4,1.8,1.3,2l49.1,10.3c0.9,0.2,1.8-0.4,2-1.3l6.5-31.1
		c0.2-0.9-0.4-1.8-1.3-2l-49.1-10.3C125.8,84.6,124.9,85.2,124.8,86.1z"/>
	<g>
		<g>
			<g>
				<g>
					<path class="st2" d="M123.6,84.4l-6.5,31.2c-0.2,0.9,0.4,1.8,1.3,2l49.1,10.3c0.9,0.2,1.8-0.4,2-1.3l6.5-31.2
						c0.2-0.9-0.4-1.8-1.3-2l-49.1-10.3C124.7,82.9,123.8,83.5,123.6,84.4z"/>
					
						<rect x="129.9" y="81.4" transform="matrix(0.205 -0.9788 0.9788 0.205 12.7949 226.1264)" class="st3" width="31.3" height="47.5"/>
				</g>
			</g>
			<circle class="st9" cx="170.8" cy="110.6" r="1.4"/>
		</g>
		<g>
			<g>
				<g>
					<path class="st5" d="M147.5,104.7l19.2,4c0.5,0.1,0.9-0.2,1-0.7l2.4-11.4c0.1-0.5-0.2-0.9-0.7-1l-19.2-4
						c-0.5-0.1-0.9,0.2-1,0.7l-2.4,11.4C146.7,104.2,147,104.6,147.5,104.7z"/>
				</g>
			</g>
			<polygon class="st3" points="155.7,101.7 158.9,98.1 160.4,102.7 			"/>
		</g>
		<g>
			<g>
				<g>
					<path class="st8" d="M124.9,100l19.2,4c0.5,0.1,0.9-0.2,1-0.7l2.4-11.4c0.1-0.5-0.2-0.9-0.7-1l-19.2-4c-0.5-0.1-0.9,0.2-1,0.7
						l-2.4,11.4C124.1,99.4,124.5,99.9,124.9,100z"/>
				</g>
			</g>
			<polygon class="st3" points="138.3,95.9 135.4,97.8 133.5,94.9 136.4,93 			"/>
		</g>
		<g>
			<g>
				<g>
					<path class="st6" d="M144.4,119.5l19.2,4c0.5,0.1,0.9-0.2,1-0.7l2.4-11.4c0.1-0.5-0.2-0.9-0.7-1l-19.2-4
						c-0.5-0.1-0.9,0.2-1,0.7l-2.4,11.4C143.6,118.9,143.9,119.4,144.4,119.5z"/>
				</g>
			</g>
			<circle class="st3" cx="155.4" cy="114.9" r="2.2"/>
		</g>
		<g>
			<g>
				<g>
					<path class="st7" d="M121.8,114.8l19.2,4c0.5,0.1,0.9-0.2,1-0.7l2.4-11.4c0.1-0.5-0.2-0.9-0.7-1l-19.2-4
						c-0.5-0.1-0.9,0.2-1,0.7l-2.4,11.4C121.1,114.2,121.4,114.7,121.8,114.8z"/>
				</g>
			</g>
			
				<rect x="130.7" y="108.1" transform="matrix(0.205 -0.9788 0.9788 0.205 -2.2649 217.5929)" class="st3" width="4.1" height="4.1"/>
		</g>
	</g>
</g>
<g>
	<path class="st1" d="M35.7,84.1l16.8,51.1c0.4,1.1,1.6,1.7,2.7,1.3l28.3-9.3c1.1-0.4,1.7-1.6,1.3-2.7L68,73.5
		c-0.4-1.1-1.6-1.7-2.7-1.3L37,81.5C35.9,81.9,35.4,83.1,35.7,84.1z"/>
	<g>
		<g>
			<path class="st2" d="M33.6,83.1l16.7,51.1c0.4,1.1,1.6,1.7,2.7,1.3l28.3-9.3c1.1-0.4,1.7-1.6,1.3-2.7L65.9,72.4
				c-0.4-1.1-1.6-1.7-2.7-1.3l-28.3,9.3C33.8,80.8,33.2,82,33.6,83.1z"/>
			
				<rect x="42.9" y="76.6" transform="matrix(0.95 -0.3123 0.3123 0.95 -28.9513 23.1139)" class="st3" width="29.5" height="50.7"/>
			<circle class="st9" cx="66.4" cy="128.4" r="1.6"/>
		</g>
		<g>
			<g>
				<path class="st7" d="M45.7,107.8l6.4,19.5c0.2,0.6,0.8,0.9,1.3,0.7l9.7-3.2c0.6-0.2,0.9-0.8,0.7-1.3l-6.4-19.5
					c-0.2-0.6-0.8-0.9-1.3-0.7l-9.7,3.2C45.8,106.6,45.5,107.2,45.7,107.8z"/>
			</g>
			<rect x="52.4" y="113.2" transform="matrix(0.95 -0.3123 0.3123 0.95 -33.3719 22.8928)" class="st3" width="4.9" height="4.9"/>
		</g>
		<g>
			<g>
				<path class="st6" d="M58.9,103.4l6.4,19.5c0.2,0.6,0.8,0.9,1.3,0.7l9.7-3.2c0.6-0.2,0.9-0.8,0.7-1.3l-6.4-19.5
					c-0.2-0.6-0.8-0.9-1.3-0.7l-9.7,3.2C59.1,102.3,58.7,102.8,58.9,103.4z"/>
			</g>
			<circle class="st3" cx="68" cy="111.2" r="2.5"/>
		</g>
		<g>
			<g>
				<path class="st8" d="M38.1,84.6l6.4,19.5c0.2,0.6,0.8,0.9,1.3,0.7l9.7-3.2c0.6-0.2,0.9-0.8,0.7-1.3l-6.4-19.5
					c-0.2-0.6-0.8-0.9-1.3-0.7l-9.7,3.2C38.2,83.4,37.9,84,38.1,84.6z"/>
			</g>
			<polygon class="st3" points="50,91.5 48.1,95.1 44.4,93.3 46.3,89.7 			"/>
		</g>
		<g>
			<g>
				<path class="st5" d="M51.3,80.2l6.4,19.5c0.2,0.6,0.8,0.9,1.3,0.7l9.7-3.2c0.6-0.2,0.9-0.8,0.7-1.3L63,76.4
					c-0.2-0.6-0.8-0.9-1.3-0.7L52,78.9C51.5,79.1,51.2,79.6,51.3,80.2z"/>
			</g>
			<polygon class="st3" points="58.5,91.3 59.6,85.7 63.8,89.5 			"/>
		</g>
	</g>
</g>
</svg>
